<?xml version="1.0" encoding="utf-8"?>
<!-- Generator: Adobe Illustrator 28.0.0, SVG Export Plug-In . SVG Version: 6.00 Build 0)  -->
<svg version="1.1" id="Layer_1" xmlns="http://www.w3.org/2000/svg" xmlns:xlink="http://www.w3.org/1999/xlink" x="0px" y="0px"
	 viewBox="0 0 500 71.99" style="enable-background:new 0 0 500 71.99;" xml:space="preserve">
<style type="text/css">
	.st0{fill:#EC1C2C;}
	.st1{fill:#0055A5;}
	.st2{fill:url(#SVGID_1_);}
</style>
<g>
	<g>
		<path class="st1" d="M137.34,40.9c0-8.3,6.4-14.18,15.16-14.18s15.11,5.89,15.11,14.18c0,8.3-6.35,14.18-15.11,14.18
			S137.34,49.2,137.34,40.9z M159.52,40.9c0-4.76-3.02-7.63-7.02-7.63s-7.07,2.87-7.07,7.63c0,4.76,3.07,7.63,7.07,7.63
			S159.52,45.67,159.52,40.9z"/>
		<path class="st1" d="M172.94,16.68h7.99v38h-7.99V16.68z"/>
		<path class="st1" d="M218.36,40.9c0,8.65-5.99,14.18-13.72,14.18c-3.43,0-6.25-1.08-8.3-3.33v12.85h-7.99V27.13h7.63v3.18
			c2-2.41,4.97-3.58,8.65-3.58C212.37,26.72,218.36,32.25,218.36,40.9z M210.27,40.9c0-4.76-3.02-7.63-7.02-7.63
			c-3.99,0-7.02,2.87-7.02,7.63c0,4.76,3.02,7.63,7.02,7.63C207.25,48.53,210.27,45.67,210.27,40.9z"/>
		<path class="st1" d="M247.6,38.96v15.72h-7.48v-3.43c-1.48,2.51-4.35,3.84-8.4,3.84c-6.45,0-10.29-3.58-10.29-8.35
			c0-4.86,3.43-8.24,11.83-8.24h6.35c0-3.43-2.05-5.43-6.35-5.43c-2.92,0-5.94,0.97-7.94,2.56l-2.87-5.58
			c3.02-2.15,7.48-3.33,11.88-3.33C242.74,26.72,247.6,30.61,247.6,38.96z M239.61,45.97v-2.82h-5.48c-3.74,0-4.92,1.38-4.92,3.23
			c0,2,1.69,3.33,4.51,3.33C236.39,49.71,238.69,48.48,239.61,45.97z"/>
		<path class="st1" d="M272.59,53.35c-1.64,1.18-4.04,1.74-6.5,1.74c-6.5,0-10.29-3.33-10.29-9.88V33.89h-4.25v-6.14h4.25v-6.71
			h7.99v6.71h6.86v6.14h-6.86V45.1c0,2.36,1.28,3.64,3.43,3.64c1.18,0,2.36-0.36,3.23-1.02L272.59,53.35z"/>
		<path class="st1" d="M294.2,26.72v7.37c-0.67-0.05-1.18-0.1-1.79-0.1c-4.4,0-7.32,2.41-7.32,7.68v13.01h-7.99V27.13h7.63v3.64
			C286.68,28.1,289.95,26.72,294.2,26.72z"/>
		<path class="st1" d="M323.19,38.96v15.72h-7.48v-3.43c-1.48,2.51-4.35,3.84-8.4,3.84c-6.45,0-10.29-3.58-10.29-8.35
			c0-4.86,3.43-8.24,11.83-8.24h6.35c0-3.43-2.05-5.43-6.35-5.43c-2.92,0-5.94,0.97-7.94,2.56l-2.87-5.58
			c3.02-2.15,7.48-3.33,11.88-3.33C318.32,26.72,323.19,30.61,323.19,38.96z M315.2,45.97v-2.82h-5.48c-3.74,0-4.92,1.38-4.92,3.23
			c0,2,1.69,3.33,4.51,3.33C311.97,49.71,314.28,48.48,315.2,45.97z"/>
	</g>
</g>
<g>
	<g>
		<path class="st1" d="M368.95,18.83v35.84h-6.81l-17.87-21.76v21.76h-8.19V18.83h6.86l17.82,21.76V18.83H368.95z"/>
		<path class="st1" d="M403.72,43.16h-20.84c0.77,3.43,3.69,5.53,7.89,5.53c2.92,0,5.02-0.87,6.91-2.66l4.25,4.61
			c-2.56,2.92-6.4,4.46-11.37,4.46c-9.52,0-15.72-5.99-15.72-14.18c0-8.24,6.3-14.18,14.7-14.18c8.09,0,14.34,5.43,14.34,14.29
			C403.87,41.62,403.77,42.49,403.72,43.16z M382.78,38.5h13.57c-0.56-3.48-3.17-5.74-6.76-5.74
			C385.95,32.76,383.34,34.96,382.78,38.5z"/>
		<path class="st1" d="M439.21,40.9c0,8.65-5.99,14.18-13.72,14.18c-3.43,0-6.25-1.08-8.3-3.33v12.85h-7.99V27.13h7.63v3.18
			c2-2.41,4.97-3.58,8.65-3.58C433.22,26.72,439.21,32.25,439.21,40.9z M431.12,40.9c0-4.76-3.02-7.63-7.02-7.63
			c-3.99,0-7.02,2.87-7.02,7.63c0,4.76,3.02,7.63,7.02,7.63C428.1,48.53,431.12,45.67,431.12,40.9z"/>
		<path class="st1" d="M468.45,38.96v15.72h-7.48v-3.43c-1.48,2.51-4.35,3.84-8.4,3.84c-6.45,0-10.29-3.58-10.29-8.35
			c0-4.86,3.43-8.24,11.83-8.24h6.35c0-3.43-2.05-5.43-6.35-5.43c-2.92,0-5.94,0.97-7.94,2.56l-2.87-5.58
			c3.02-2.15,7.48-3.33,11.88-3.33C463.59,26.72,468.45,30.61,468.45,38.96z M460.46,45.97v-2.82h-5.48c-3.74,0-4.92,1.38-4.92,3.23
			c0,2,1.69,3.33,4.51,3.33C457.24,49.71,459.54,48.48,460.46,45.97z"/>
		<path class="st1" d="M475.67,16.68h7.99v38h-7.99V16.68z"/>
	</g>
</g>
<path class="st1" d="M94.94,35.7c0-5.08-0.02-10.15,0.02-15.23c0.01-0.72,0.2-1.48,0.46-2.16c0.33-0.87,1.06-1.4,1.98-1.56
	c0.78-0.14,1.57-0.27,2.35-0.27c6.65-0.02,13.29-0.03,19.94,0c1.5,0.01,3.02,0.07,4.48,0.36c1.59,0.32,2.95,1.2,4.09,2.4
	c1.48,1.57,2.12,3.44,2.14,5.54c0.01,1.26-0.04,2.54-0.23,3.79c-0.14,0.93-0.48,1.85-0.85,2.72c-0.36,0.86-0.89,1.64-1.33,2.47
	c-0.23,0.43-0.08,0.73,0.29,1.04c0.88,0.74,1.77,1.49,2.54,2.34c1.16,1.28,1.82,2.85,2.25,4.52c0.55,2.12,0.62,4.25,0.27,6.42
	c-0.29,1.82-1.08,3.38-2.4,4.62c-1.31,1.22-2.86,2.04-4.72,2.06c-4.92,0.06-9.84,0.12-14.76,0.15c-3.91,0.02-7.83,0.01-11.74-0.01
	c-0.75,0-1.5-0.07-2.24-0.18c-1.42-0.21-2.49-1.62-2.53-3.36c-0.03-1.29-0.01-2.58-0.01-3.87c0-3.94,0-7.87,0-11.81H94.94z
	 M101.66,35.73L101.66,35.73c-0.01,3.76-0.01,7.52-0.01,11.29c0,1.12,0.1,1.23,1.2,1.23c6.92,0,13.85,0,20.77,0
	c0.56,0,1.12,0.02,1.67-0.02c0.95-0.07,1.48-0.61,1.53-1.58c0.03-0.66,0.06-1.34-0.01-2c-0.18-1.69-0.78-3.21-2.17-4.3
	c-1.2-0.94-2.6-1.29-4.1-1.29c-4.99,0-9.98-0.01-14.96,0.01c-0.52,0-0.72-0.14-0.71-0.69c0.03-1.76,0.03-3.53-0.01-5.29
	c-0.01-0.61,0.22-0.75,0.79-0.74c3.72,0.02,7.44,0.03,11.16,0c0.85-0.01,1.73-0.06,2.56-0.26c1.45-0.35,2.6-1.18,3.38-2.49
	c0.82-1.39,0.96-2.93,0.88-4.48c-0.07-1.57-0.51-1.76-1.78-1.97c-0.15-0.02-0.3-0.01-0.45-0.01c-6.19,0-12.38,0-18.58,0
	c-1,0-1.16,0.17-1.16,1.17C101.66,28.12,101.66,31.93,101.66,35.73z"/>
<linearGradient id="SVGID_1_" gradientUnits="userSpaceOnUse" x1="9.7094" y1="35.6949" x2="77.8855" y2="35.6949">
	<stop  offset="0" style="stop-color:#EC1C2C"/>
	<stop  offset="0.9397" style="stop-color:#B92025"/>
</linearGradient>
<path class="st2" d="M77.16,44.55c-0.64-2.48-1.62-4.8-3.34-6.71c-1.14-1.26-2.46-2.37-3.76-3.47c-0.55-0.47-0.78-0.91-0.44-1.55
	c0.65-1.22,1.43-2.39,1.97-3.66c0.55-1.3,1.05-2.66,1.26-4.04c0.28-1.85,0.36-3.74,0.34-5.62c-0.03-3.11-0.97-5.89-3.17-8.21
	c-1.7-1.79-3.71-3.09-6.07-3.57c-2.17-0.43-4.43-0.53-6.65-0.54c-9.86-0.05-19.71-0.04-29.57,0c-1.16,0-2.34,0.2-3.49,0.4
	c-1.37,0.24-2.45,1.03-2.94,2.32c-0.39,1.01-0.67,2.13-0.68,3.21c-0.05,6.36-0.04,12.73-0.03,19.09h18.58v-5.07h15.42v17.02H39.17
	v-4.98c-9.82-0.07-19.64-0.14-29.46-0.21c3.63,2.16,7.26,4.32,10.88,6.47c0.02,5.3,0.02,7.54,0,8.3c0,0.06-0.01,0.36-0.01,0.77
	c-0.01,0.49-0.01,1.14-0.01,1.92c0,0.77,0.02,1.48,0.04,2.52c0.06,2.58,1.63,4.68,3.75,4.98c1.1,0.16,2.22,0.26,3.33,0.26
	c5.81,0.03,11.61,0.05,17.42,0.02c7.3-0.04,14.6-0.13,21.9-0.23c2.75-0.03,5.05-1.25,7-3.06c1.97-1.83,3.13-4.15,3.56-6.85
	C78.09,50.86,77.98,47.7,77.16,44.55z M38.19,25.76c-1.51,0-2.74-1.23-2.74-2.74V21.2c0-1.51,1.23-2.74,2.74-2.74h17.38
	c1.51,0,2.74,1.23,2.74,2.74v1.83c0,1.51-1.23,2.74-2.74,2.74H38.19z M58.59,50.13c0,1.55-1.26,2.81-2.81,2.81H37.97
	c-1.55,0-2.81-1.26-2.81-2.81v-1.87c0-1.55,1.26-2.81,2.81-2.81h17.82c1.55,0,2.81,1.26,2.81,2.81V50.13z"/>
</svg>
